<?xml version="1.0" encoding="UTF-8"?>
<svg width="40px" height="25px" viewBox="0 0 40 25" version="1.1" xmlns="http://www.w3.org/2000/svg" xmlns:xlink="http://www.w3.org/1999/xlink">
    <!-- Generator: Sketch 53.2 (72643) - https://sketchapp.com -->
    <title>Visa</title>
    <desc>Created with Sketch.</desc>
    <g id="(done)-Footer---tanz" stroke="none" stroke-width="1" fill="none" fill-rule="evenodd">
        <g id="Footer" transform="translate(-562.000000, -529.000000)">
            <g id="Group-13" transform="translate(507.000000, 529.000000)">
                <g id="Visa" transform="translate(55.000000, 0.000000)">
                    <rect id="Rectangle" stroke="#939598" stroke-width="0.35" fill="#FFFFFF" x="0.175" y="0.175" width="39.65" height="24.65" rx="4"></rect>
                    <g id="Group-11" transform="translate(3.000000, 7.000000)">
                        <polygon id="Fill-1" fill="#004F98" points="12.8745818 0.346763636 11.2571273 9.8384 13.8431273 9.8384 15.4616727 0.346763636"></polygon>
                        <g id="Group-10" transform="translate(0.000000, 0.160873)">
                            <path d="M23.2262,0.419563636 C22.7136545,0.2272 21.9105636,0.0210181818 20.9074727,0.0210181818 C18.3512909,0.0210181818 16.5503818,1.30829091 16.5351091,3.1532 C16.5207455,4.51701818 17.8207455,5.27792727 18.8020182,5.73192727 C19.8089273,6.19701818 20.1474727,6.49374545 20.1427455,6.9092 C20.1363818,7.54538182 19.3385636,7.83610909 18.5949273,7.83610909 C17.5594727,7.83610909 17.0094727,7.69229091 16.1598364,7.33792727 L15.8263818,7.18701818 L15.4632909,9.31174545 C16.0676545,9.57665455 17.1849273,9.80629091 18.3451091,9.81810909 C21.0645636,9.81810909 22.8300182,8.54556364 22.8502,6.57538182 C22.8598364,5.49574545 22.1705636,4.67392727 20.6780182,3.99665455 C19.7738364,3.55756364 19.2200182,3.26447273 19.2258364,2.81992727 C19.2258364,2.42538182 19.6945636,2.00356364 20.7072909,2.00356364 C21.5534727,1.99047273 22.1662,2.17483636 22.6436545,2.3672 L22.8754727,2.47665455 L23.2262,0.419563636" id="Fill-2" fill="#004F98"></path>
                            <path d="M26.6700909,6.31267273 C26.8840909,5.76576364 27.7008182,3.6594 27.7008182,3.6594 C27.6855455,3.68467273 27.9131818,3.10994545 28.0439091,2.75358182 L28.2188182,3.57194545 C28.2188182,3.57194545 28.7140909,5.83758182 28.8177273,6.31267273 L26.6700909,6.31267273 Z M29.8602727,0.195036364 L27.8611818,0.195036364 C27.2419091,0.195036364 26.7784545,0.363945455 26.5064545,0.982127273 L22.6642727,9.68030909 L25.3808182,9.68030909 C25.3808182,9.68030909 25.8251818,8.51085455 25.9255455,8.25412727 C26.2224545,8.25412727 28.8615455,8.25812727 29.2388182,8.25812727 C29.3162727,8.59030909 29.5535455,9.68030909 29.5535455,9.68030909 L31.9540909,9.68030909 L29.8602727,0.195036364 L29.8602727,0.195036364 Z" id="Fill-4" fill="#004F98"></path>
                            <path d="M9.08727273,0.192818182 L6.55436364,6.66536364 L6.28454545,5.34990909 C5.81309091,3.83354545 4.344,2.19081818 2.70145455,1.36845455 L5.01745455,9.66918182 L7.75472727,9.66609091 L11.8276364,0.192818182 L9.08727273,0.192818182" id="Fill-6" fill="#004F98"></path>
                            <path d="M4.20472727,0.186963636 L0.0330909091,0.186963636 L0,0.384418182 C3.24563636,1.17005455 5.39309091,3.06878182 6.28454545,5.34987273 L5.37745455,0.988236364 C5.22072727,0.387327273 4.76654545,0.207872727 4.20472727,0.186963636" id="Fill-8" fill="#F6A600"></path>
                        </g>
                    </g>
                </g>
            </g>
        </g>
    </g>
</svg>